# xmcd
#
# Track frame offsets:
#         150
#       13211
#       36881
#       55021
#       80310
#      120161
#      146259
#      169338
#      190628
#      212931
#      226454
#
# Disc length:   4010 seconds
#
# Revision: 0
# Processed by: cddbd v1.5.1PL2 Copyright (c) Steve Scherf et al.
# Submitted via: Max 0.6.1
#
DISCID=8a0fa80b
DTITLE=Jinn - Jinn
DYEAR=1900
DGENRE=Blues
TTITLE0=Jinn - Book
TTITLE1=Jinn - Catche Me
TTITLE2=Jinn - Make a Wish
TTITLE3=Jinn - No More
TTITLE4=Jinn - Queer
TTITLE5=Jinn - Illusion
TTITLE6=Jinn - Little People
TTITLE7=Jinn - Garden Of Delight
TTITLE8=Jinn - You in Me
TTITLE9=Jinn - Dinner
TTITLE10=Jinn - Dinner
EXTD=(marielle)
EXTT0=
EXTT1=
EXTT2=
EXTT3=
EXTT4=
EXTT5=
EXTT6=
EXTT7=
EXTT8=
EXTT9=
EXTT10=
PLAYORDER=
